Coordinates
version=1
nRows=16
nColumns=40
inDegrees=yes

Units are S.I. units (second, meters, Newtons, ...)
If the header above contains a line with 'inDegrees', this indicates whether rotational values are in degrees (yes) or radians (no).

endheader
time	pelvis_tilt	pelvis_list	pelvis_rotation	pelvis_tx	pelvis_ty	pelvis_tz	hip_flexion_r	hip_adduction_r	hip_rotation_r	knee_angle_r	knee_angle_r_beta	ankle_angle_r	subtalar_angle_r	mtp_angle_r	hip_flexion_l	hip_adduction_l	hip_rotation_l	knee_angle_l	knee_angle_l_beta	ankle_angle_l	subtalar_angle_l	mtp_angle_l	lumbar_extension	lumbar_bending	lumbar_rotation	arm_flex_r	arm_add_r	arm_rot_r	elbow_flex_r	pro_sup_r	wrist_flex_r	wrist_dev_r	arm_flex_l	arm_add_l	arm_rot_l	elbow_flex_l	pro_sup_l	wrist_flex_l	wrist_dev_l
      2.20000000	      2.92355432	      4.29273765	      4.41379024	     -0.28344665	      1.08862148	     -0.81496465	      2.87867789	     -3.07849857	    -12.62453521	     15.80511346	      0.27585127	     -2.88731368	      0.00000000	      0.00000000	     12.14960399	     -8.29144288	     -0.76405918	     27.47943711	      0.47960665	     -8.19914040	      0.00000000	      0.00000000	     -8.06809902	      1.37834325	      0.43494757	     89.91978814	    -17.76607794	     31.13604347	     33.73966721	     83.49566530	      0.00000000	      0.00000000	     89.91166335	    -10.49762669	     34.84986970	     36.45587672	     84.55955756	      0.00000000	      0.00000000
      2.20500000	      2.99573896	      4.39429210	      4.40809641	     -0.28371326	      1.08879508	     -0.81456057	      2.80218062	     -3.15446658	    -12.61959564	     15.77931037	      0.27540092	     -2.93870843	      0.00000000	      0.00000000	     12.21383608	     -8.18543543	     -0.80860069	     27.98262432	      0.48838893	     -7.83761866	      0.00000000	      0.00000000	     -8.15614272	      1.28036859	      0.45833568	     89.91997585	    -17.79668605	     31.11727516	     33.75377241	     83.51205235	      0.00000000	      0.00000000	     89.91184481	    -10.46742420	     34.86273723	     36.47000639	     84.55218031	      0.00000000	      0.00000000
      2.21000000	      3.00110273	      4.42719407	      4.43085801	     -0.28408974	      1.08880705	     -0.81418115	      2.81054072	     -3.16655131	    -12.64768310	     15.76068537	      0.27507585	     -2.96101152	      0.00000000	      0.00000000	     12.36713023	     -8.15418396	     -0.90623687	     28.54270896	      0.49816425	     -7.08921305	      0.00000000	      0.00000000	     -8.17721866	      1.25111609	      0.45201671	     89.92013007	    -17.81848296	     31.08973919	     33.79360206	     83.53021428	      0.00000000	      0.00000000	     89.91217614	    -10.44856534	     34.86115612	     36.47790527	     84.53778999	      0.00000000	      0.00000000
      2.21500000	      3.00446842	      4.46739374	      4.42779518	     -0.28444237	      1.08884807	     -0.81374704	      2.82396404	     -3.17492059	    -12.63337077	     15.75063472	      0.27490044	     -2.97072545	      0.00000000	      0.00000000	     12.52617238	     -8.10941917	     -0.93031319	     29.08955333	      0.50770848	     -6.62368075	      0.00000000	      0.00000000	     -8.19354751	      1.20838863	      0.45798217	     89.92017342	    -17.83341600	     31.08063945	     33.82734120	     83.54386556	      0.00000000	      0.00000000	     89.91243077	    -10.42819194	     34.84378442	     36.46691585	     84.52528108	      0.00000000	      0.00000000
      2.22000000	      3.01682181	      4.49229667	      4.42965990	     -0.28484307	      1.08887304	     -0.81328570	      2.83907379	     -3.17251436	    -12.61552467	     15.75369717	      0.27495388	     -2.99364565	      0.00000000	      0.00000000	     12.68691234	     -8.09081073	     -0.98846188	     29.71096698	      0.51855420	     -5.97645578	      0.00000000	      0.00000000	     -8.22276633	      1.18603260	      0.45812746	     89.92021737	    -17.83538354	     31.08110579	     33.86087023	     83.56157818	      0.00000000	      0.00000000	     89.91291330	    -10.42102048	     34.81686592	     36.47800083	     84.51529175	      0.00000000	      0.00000000
      2.22500000	      3.01327816	      4.51515786	      4.45223941	     -0.28520555	      1.08890469	     -0.81287821	      2.86653027	     -3.17429035	    -12.64914187	     15.76042409	      0.27507129	     -3.00301279	      0.00000000	      0.00000000	     12.83324526	     -8.06475671	     -1.00372062	     30.26264889	      0.52818286	     -5.48105742	      0.00000000	      0.00000000	     -8.23387303	      1.17052705	      0.45085999	     89.92036602	    -17.83896857	     31.05622096	     33.90394098	     83.57150430	      0.00000000	      0.00000000	     89.91290323	    -10.41374815	     34.79886152	     36.49099738	     84.50686174	      0.00000000	      0.00000000
      2.23000000	      3.09939936	      4.53479287	      4.46029034	     -0.28541959	      1.08901923	     -0.81255404	      2.78179051	     -3.16915646	    -12.68588197	     15.76001046	      0.27506407	     -2.99313824	      0.00000000	      0.00000000	     12.91040177	     -8.03840876	     -1.02472625	     30.92261986	      0.53970153	     -5.02593131	      0.00000000	      0.00000000	     -8.31822181	      1.17573111	      0.45971147	     89.92069704	    -17.84599388	     31.06029326	     33.91423911	     83.58113465	      0.00000000	      0.00000000	     89.91270714	    -10.39760385	     34.80167338	     36.50132931	     84.50309673	      0.00000000	      0.00000000
      2.23500000	      3.04992203	      4.54279776	      4.49203823	     -0.28574750	      1.08901749	     -0.81219872	      2.81922066	     -3.13951094	    -12.66925166	     15.67687171	      0.27361303	     -3.01251614	      0.00000000	      0.00000000	     13.13471380	     -8.03521973	     -1.08477246	     31.59480356	      0.55143335	     -4.44480224	      0.00000000	      0.00000000	     -8.27779243	      1.16851324	      0.43301532	     89.92021429	    -17.86325509	     31.04187596	     33.95387696	     83.58855426	      0.00000000	      0.00000000	     89.91279935	    -10.38793036	     34.80074670	     36.50948270	     84.49830558	      0.00000000	      0.00000000
      2.24000000	      3.00670508	      4.43191672	      4.50862398	     -0.28607873	      1.08888494	     -0.81176951	      2.88630739	     -2.98985232	    -12.69237764	     15.64714363	      0.27309417	     -2.99873634	      0.00000000	      0.00000000	     13.39375560	     -8.19803680	     -1.23926196	     32.33155882	      0.56429215	     -3.85591847	      0.00000000	      0.00000000	     -8.22236590	      1.29395641	      0.45999464	     89.92049844	    -17.89283774	     31.06283708	     33.98822570	     83.61112605	      0.00000000	      0.00000000	     89.91244308	    -10.37012460	     34.79333571	     36.50671338	     84.48718771	      0.00000000	      0.00000000
      2.24500000	      3.07399538	      4.49871035	      4.49719536	     -0.28638084	      1.08903143	     -0.81143382	      2.83489383	     -3.03464715	    -12.63688889	     15.65473482	      0.27322667	     -3.02269815	      0.00000000	      0.00000000	     13.43376596	     -8.11434471	     -1.23033635	     32.93103725	      0.57475503	     -3.57171136	      0.00000000	      0.00000000	     -8.30316389	      1.24211835	      0.45388967	     89.92038287	    -17.89572899	     31.05141200	     34.01647816	     83.61848101	      0.00000000	      0.00000000	     89.91265693	    -10.36747082	     34.80295850	     36.49190085	     84.48846992	      0.00000000	      0.00000000
      2.25000000	      3.11003091	      4.58233393	      4.44169998	     -0.28674315	      1.08915171	     -0.81095545	      2.81181642	     -3.08819392	    -12.61870407	     15.63649110	      0.27290825	     -3.04081258	      0.00000000	      0.00000000	     13.53054846	     -8.02292129	     -1.27738131	     33.59631998	      0.58636640	     -3.06415246	      0.00000000	      0.00000000	     -8.36243789	      1.15663420	      0.50015553	     89.92077612	    -17.86576239	     31.04327959	     34.03399774	     83.62434862	      0.00000000	      0.00000000	     89.91268629	    -10.39030381	     34.78698171	     36.50969703	     84.48740760	      0.00000000	      0.00000000
      2.25500000	      3.13524705	      4.58670884	      4.46680509	     -0.28707758	      1.08920424	     -0.81058517	      2.80541689	     -3.05636366	    -12.59643752	     15.62902859	      0.27277801	     -3.05028388	      0.00000000	      0.00000000	     13.68559900	     -8.03064462	     -1.36171324	     34.34517736	      0.59943643	     -2.56060511	      0.00000000	      0.00000000	     -8.40115489	      1.13663735	      0.48797218	     89.92068964	    -17.89582528	     31.02028533	     34.04921829	     83.62910188	      0.00000000	      0.00000000	     89.91286054	    -10.34406173	     34.76296330	     36.56337033	     84.48405794	      0.00000000	      0.00000000
      2.26000000	      3.01293305	      4.45118211	      4.49366185	     -0.28745289	      1.08897535	     -0.81019070	      2.96662639	     -2.88336703	    -12.60645444	     15.61065008	      0.27245724	     -3.01915413	      0.00000000	      0.00000000	     14.03433190	     -8.19408470	     -1.38921412	     35.19164099	      0.61421000	     -1.78438277	      0.00000000	      0.00000000	     -8.26493749	      1.27578513	      0.50727511	     89.92045509	    -17.92965239	     30.99198528	     34.09504657	     83.64804589	      0.00000000	      0.00000000	     89.91239257	    -10.33188580	     34.74373512	     36.55214748	     84.47988513	      0.00000000	      0.00000000
      2.26500000	      3.09937948	      4.56194750	      4.45467131	     -0.28770630	      1.08919114	     -0.80988814	      2.88837544	     -2.97831083	    -12.57195031	     15.60335377	      0.27232990	     -3.04908049	      0.00000000	      0.00000000	     14.03913589	     -8.04436323	     -1.39613384	     35.79508820	      0.62474215	     -1.58146293	      0.00000000	      0.00000000	     -8.36716867	      1.17945743	      0.52742000	     89.92052222	    -17.91419247	     31.00238453	     34.12079589	     83.65397839	      0.00000000	      0.00000000	     89.91214360	    -10.32558899	     34.77226571	     36.51829504	     84.48073276	      0.00000000	      0.00000000
      2.27000000	      3.16148404	      4.65344633	      4.42998766	     -0.28798283	      1.08932480	     -0.80952278	      2.83426040	     -3.04110032	    -12.54743109	     15.60645182	      0.27238397	     -3.06811165	      0.00000000	      0.00000000	     14.11151220	     -7.95212352	     -1.45535234	     36.53364039	      0.63763231	     -1.19444320	      0.00000000	      0.00000000	     -8.44530720	      1.08160932	      0.53234507	     89.92071930	    -17.91518668	     31.00604125	     34.11519379	     83.66046442	      0.00000000	      0.00000000	     89.91248316	    -10.32791357	     34.76876979	     36.52564098	     84.48154398	      0.00000000	      0.00000000
      2.27500000	      3.18627444	      4.70500106	      4.40153749	     -0.28831853	      1.08939204	     -0.80913663	      2.83074633	     -3.06050568	    -12.50981824	     15.59023998	      0.27210102	     -3.06053561	      0.00000000	      0.00000000	     14.20794277	     -7.89686458	     -1.53234202	     37.21096418	      0.64945384	     -0.80985475	      0.00000000	      0.00000000	     -8.48489679	      1.02355261	      0.54217788	     89.92040410	    -17.91806286	     30.99747238	     34.13021601	     83.66613092	      0.00000000	      0.00000000	     89.91275984	    -10.33929804	     34.77454606	     36.52746178	     84.48168836	      0.00000000	      0.00000000
